<?xml version="1.0" encoding="UTF-8" standalone="no"?>
<!-- Generator: Adobe Illustrator 16.0.0, SVG Export Plug-In . SVG Version: 6.00 Build 0)  -->
<!DOCTYPE svg  PUBLIC '-//W3C//DTD SVG 1.1//EN'  'http://www.w3.org/Graphics/SVG/1.1/DTD/svg11.dtd'>
<svg id="Layer_1" xmlns="http://www.w3.org/2000/svg" xml:space="preserve" height="200px" viewBox="-249.5 400.5 500 200" width="500px" version="1.1" y="0px" x="0px" xmlns:xlink="http://www.w3.org/1999/xlink" enable-background="new -249.5 400.5 500 200">
	<g fill="#424143">
		<path d="m-77.044 502.2c0 4.409-0.687 8.241-2.057 11.497-1.371 3.259-3.307 5.951-5.804 8.082-2.497 2.13-5.486 3.722-8.963 4.774-3.478 1.054-7.298 1.579-11.46 1.579-2.057 0-4.323-0.086-6.795-0.257-2.475-0.173-4.715-0.501-6.723-0.991v-49.367c2.008-0.49 4.248-0.821 6.723-0.991 2.472-0.171 4.738-0.257 6.795-0.257 4.162 0 7.982 0.524 11.46 1.579 3.477 1.053 6.466 2.644 8.963 4.774 2.497 2.129 4.433 4.824 5.804 8.08 1.363 3.27 2.049 7.1 2.049 11.51zm-27.696 19.69c6.758 0 11.802-1.726 15.133-5.179 3.33-3.454 4.996-8.288 4.996-14.51 0-6.219-1.666-11.056-4.996-14.509-3.331-3.451-8.375-5.18-15.133-5.18-2.009 0-3.563 0.027-4.665 0.073-1.103 0.051-1.873 0.101-2.314 0.148v38.935c0.441 0.049 1.212 0.098 2.314 0.146 1.1 0.05 2.65 0.08 4.66 0.08z"/>
		<path d="m-63.526 482.58c-1.225 0-2.266-0.403-3.122-1.211-0.857-0.81-1.286-1.897-1.286-3.269s0.429-2.462 1.286-3.271c0.856-0.81 1.897-1.213 3.122-1.213 1.224 0 2.265 0.403 3.123 1.213 0.855 0.809 1.285 1.898 1.285 3.271 0 1.371-0.43 2.459-1.285 3.269-0.859 0.81-1.9 1.21-3.123 1.21zm3.453 45.11h-6.832v-38.2h6.832v38.2z"/>
		<path d="m-50.451 508.66c0-3.381 0.489-6.33 1.469-8.852 0.978-2.522 2.277-4.616 3.895-6.281s3.476-2.914 5.582-3.748c2.107-0.832 4.263-1.249 6.466-1.249 5.143 0 9.084 1.605 11.828 4.813 2.741 3.207 4.111 8.092 4.111 14.654v1.139c0 0.469-0.022 0.896-0.071 1.287h-26.152c0.292 3.967 1.443 6.979 3.45 9.035 2.01 2.059 5.144 3.085 9.404 3.085 2.399 0 4.42-0.207 6.062-0.623 1.639-0.418 2.876-0.821 3.71-1.214l0.954 5.73c-0.834 0.441-2.289 0.908-4.369 1.396-2.085 0.49-4.444 0.734-7.091 0.734-3.331 0-6.208-0.501-8.632-1.507-2.424-1.002-4.42-2.387-5.986-4.148-1.57-1.764-2.732-3.857-3.49-6.281-0.761-2.42-1.14-5.07-1.14-7.97zm26.226-3.74c0.049-3.086-0.723-5.621-2.315-7.604-1.592-1.985-3.783-2.977-6.573-2.977-1.568 0-2.952 0.307-4.152 0.918-1.199 0.612-2.216 1.409-3.047 2.39-0.834 0.979-1.481 2.104-1.947 3.378-0.466 1.275-0.772 2.572-0.919 3.895h18.953z"/>
		<path d="m-0.865 489.49h14.475v5.731h-14.475v17.63c0 1.91 0.148 3.488 0.443 4.739 0.293 1.249 0.731 2.229 1.322 2.937 0.584 0.713 1.321 1.214 2.202 1.509 0.881 0.293 1.91 0.438 3.086 0.438 2.058 0 3.709-0.23 4.959-0.695 1.25-0.467 2.117-0.797 2.607-0.994l1.321 5.658c-0.685 0.344-1.886 0.771-3.597 1.285-1.717 0.514-3.676 0.771-5.879 0.771-2.599 0-4.739-0.33-6.43-0.991-1.688-0.66-3.049-1.652-4.076-2.975-1.029-1.324-1.752-2.949-2.167-4.887-0.417-1.934-0.625-4.174-0.625-6.723v-34.086l6.831-1.175v11.827h0.003z"/>
		<path d="m19.484 508.66c0-3.381 0.488-6.33 1.47-8.852 0.981-2.522 2.276-4.616 3.896-6.281 1.613-1.666 3.478-2.914 5.582-3.748 2.104-0.832 4.26-1.249 6.465-1.249 5.142 0 9.084 1.605 11.828 4.813 2.743 3.207 4.113 8.092 4.113 14.654v1.139c0 0.469-0.026 0.896-0.075 1.287h-26.154c0.295 3.967 1.447 6.979 3.457 9.035 2.004 2.059 5.141 3.085 9.402 3.085 2.397 0 4.418-0.207 6.061-0.623 1.642-0.418 2.877-0.821 3.708-1.214l0.958 5.73c-0.834 0.441-2.291 0.908-4.373 1.396-2.081 0.49-4.445 0.734-7.09 0.734-3.33 0-6.207-0.501-8.631-1.507-2.424-1.002-4.42-2.387-5.988-4.148-1.565-1.764-2.729-3.857-3.488-6.281s-1.141-5.07-1.141-7.97zm26.228-3.74c0.047-3.086-0.726-5.621-2.313-7.604-1.592-1.985-3.783-2.977-6.575-2.977-1.568 0-2.952 0.307-4.149 0.918-1.201 0.612-2.219 1.409-3.05 2.39-0.834 0.979-1.483 2.104-1.946 3.378-0.467 1.275-0.772 2.572-0.92 3.895h18.953z"/>
		<path d="m69.073 489.49h14.472v5.731h-14.472v17.63c0 1.91 0.146 3.488 0.438 4.739 0.295 1.249 0.736 2.229 1.321 2.937 0.59 0.713 1.324 1.214 2.205 1.509 0.883 0.293 1.911 0.438 3.087 0.438 2.057 0 3.708-0.23 4.957-0.695 1.249-0.467 2.118-0.797 2.608-0.994l1.323 5.658c-0.688 0.344-1.888 0.771-3.602 1.285-1.715 0.514-3.673 0.771-5.878 0.771-2.595 0-4.737-0.33-6.428-0.991-1.689-0.66-3.048-1.652-4.076-2.975-1.029-1.324-1.752-2.949-2.169-4.887-0.415-1.934-0.623-4.174-0.623-6.723v-34.086l6.833-1.175v11.827h0.004z"/>
		<path d="m87.73 534.82c0.538 0.244 1.236 0.478 2.094 0.699 0.854 0.219 1.703 0.33 2.534 0.33 2.694 0 4.8-0.602 6.318-1.802s2.889-3.147 4.112-5.84c-3.083-5.877-5.962-12.108-8.633-18.696-2.668-6.587-4.884-13.261-6.646-20.019h7.349c0.536 2.205 1.185 4.58 1.944 7.126s1.604 5.167 2.535 7.859c0.929 2.694 1.935 5.387 3.012 8.082 1.078 2.691 2.204 5.287 3.381 7.786 1.857-5.143 3.476-10.235 4.849-15.28 1.37-5.043 2.668-10.235 3.892-15.574h7.055c-1.765 7.2-3.726 14.117-5.878 20.752-2.155 6.639-4.482 12.847-6.979 18.624-0.98 2.204-1.996 4.101-3.048 5.692-1.056 1.59-2.218 2.901-3.49 3.93s-2.706 1.789-4.296 2.279c-1.593 0.486-3.392 0.733-5.401 0.733-0.538 0-1.1-0.036-1.688-0.11-0.586-0.074-1.162-0.172-1.727-0.293-0.563-0.123-1.077-0.258-1.544-0.404-0.466-0.146-0.796-0.271-0.99-0.367l1.256-5.51z"/>
		<path d="m142.53 506.68c1.471 1.127 3.024 2.521 4.666 4.188 1.642 1.665 3.256 3.464 4.849 5.398 1.593 1.937 3.096 3.895 4.519 5.877 1.422 1.984 2.618 3.832 3.6 5.547h-8.006c-1.029-1.715-2.219-3.465-3.564-5.252-1.347-1.787-2.755-3.502-4.226-5.145-1.468-1.641-2.963-3.146-4.479-4.518-1.518-1.37-2.963-2.521-4.334-3.453v18.365h-6.831v-55.832l6.831-1.176v34.823c1.177-1.176 2.472-2.474 3.896-3.896 1.42-1.419 2.813-2.865 4.188-4.333 1.37-1.468 2.666-2.876 3.894-4.226 1.222-1.346 2.276-2.532 3.158-3.562h8.009c-1.127 1.225-2.353 2.571-3.673 4.041-1.322 1.468-2.695 2.95-4.116 4.445-1.42 1.494-2.854 2.986-4.297 4.479-1.45 1.49-2.81 2.9-4.09 4.22z"/>
	</g>
			<defs>
				<rect id="SVGID_1_" y="444.78" x="-249.5" height="111.45" width="500"/>
			</defs>
			<clipPath id="SVGID_2_">
				<use overflow="visible" xlink:href="#SVGID_1_"/>
			</clipPath>
			<g clip-path="url(#SVGID_2_)">
				<path d="m181.98 521.23c0 2.287-0.771 4.146-2.303 5.584-1.534 1.436-3.378 2.153-5.533 2.153-2.223 0-4.081-0.719-5.585-2.153-1.502-1.438-2.254-3.297-2.254-5.584 0-2.285 0.752-4.164 2.254-5.633 1.504-1.47 3.362-2.203 5.585-2.203 2.155 0 3.999 0.733 5.533 2.203 1.54 1.46 2.31 3.34 2.31 5.63z" fill="#EE3C58"/>
			</g>
			<defs>
				<rect id="SVGID_3_" y="444.78" x="-249.5" height="111.45" width="500"/>
			</defs>
			<clipPath id="SVGID_4_">
				<use overflow="visible" xlink:href="#SVGID_3_"/>
			</clipPath>
			<g fill="#424143" clip-path="url(#SVGID_4_)">
				<path d="m226.7 508.66c0 2.891-0.377 5.561-1.137 8.008-0.763 2.449-1.876 4.555-3.345 6.316-1.468 1.764-3.269 3.137-5.398 4.113-2.132 0.979-4.566 1.469-7.309 1.469-2.204 0-4.151-0.293-5.842-0.881s-2.95-1.149-3.784-1.688v15.281h-6.831v-50.617c1.615-0.393 3.639-0.821 6.061-1.287 2.427-0.463 5.229-0.695 8.412-0.695 2.938 0 5.583 0.466 7.934 1.395 2.352 0.932 4.359 2.253 6.022 3.968 1.668 1.714 2.949 3.809 3.858 6.281 0.9 2.47 1.36 5.25 1.36 8.33zm-7.13 0c0-4.456-1.104-7.885-3.307-10.285-2.204-2.399-5.144-3.6-8.815-3.6-2.059 0-3.661 0.073-4.813 0.219-1.147 0.146-2.066 0.319-2.755 0.516v24.094c0.834 0.688 2.032 1.35 3.604 1.985 1.564 0.638 3.276 0.954 5.141 0.954 1.958 0 3.638-0.355 5.032-1.064 1.396-0.709 2.535-1.689 3.416-2.938 0.88-1.25 1.518-2.718 1.908-4.408 0.4-1.69 0.59-3.52 0.59-5.48z"/>
				<path d="m247.78 528.42c-4.214-0.098-7.199-1.002-8.96-2.717-1.767-1.715-2.648-4.383-2.648-8.009v-45.841l6.836-1.176v45.915c0 1.129 0.099 2.059 0.292 2.793 0.195 0.732 0.516 1.32 0.954 1.762 0.443 0.441 1.029 0.772 1.766 0.992 0.731 0.222 1.638 0.403 2.716 0.553l-0.96 5.75z"/>
			</g>
			<defs>
				<rect id="SVGID_5_" y="444.78" x="-249.5" height="111.45" width="500"/>
			</defs>
			<clipPath id="SVGID_6_">
				<use overflow="visible" xlink:href="#SVGID_5_"/>
			</clipPath>
			<g clip-path="url(#SVGID_6_)">
				<path d="m-230.68 455.99c0 5.166-4.202 9.379-9.373 9.379-5.162 0-9.368-4.214-9.368-9.379 0-5.143 4.206-9.357 9.368-9.357 5.17 0.01 9.37 4.22 9.37 9.36" fill="#42A28A"/>
			</g>
			<defs>
				<rect id="SVGID_7_" y="444.78" x="-249.5" height="111.45" width="500"/>
			</defs>
			<clipPath id="SVGID_8_">
				<use overflow="visible" xlink:href="#SVGID_7_"/>
			</clipPath>
			<g clip-path="url(#SVGID_8_)">
				<path d="m-196.26 486.36c0 5.166-4.202 9.389-9.373 9.389-5.162 0-9.368-4.223-9.368-9.389 0-5.146 4.206-9.354 9.368-9.354 5.17 0 9.37 4.21 9.37 9.35" fill="#BCBEC0"/>
			</g>
			<defs>
				<rect id="SVGID_9_" y="444.78" x="-249.5" height="111.45" width="500"/>
			</defs>
			<clipPath id="SVGID_10_">
				<use overflow="visible" xlink:href="#SVGID_9_"/>
			</clipPath>
			<g clip-path="url(#SVGID_10_)">
				<path d="m-196.26 455.99c0 5.166-4.202 9.379-9.373 9.379-5.162 0-9.368-4.214-9.368-9.379 0-5.143 4.206-9.357 9.368-9.357 5.17 0.01 9.37 4.22 9.37 9.36" fill="#50C0AE"/>
			</g>
			<defs>
				<rect id="SVGID_11_" y="444.78" x="-249.5" height="111.45" width="500"/>
			</defs>
			<clipPath id="SVGID_12_">
				<use overflow="visible" xlink:href="#SVGID_11_"/>
			</clipPath>
			<g clip-path="url(#SVGID_12_)">
				<path d="m-196.26 516.63c0 5.163-4.202 9.379-9.373 9.379-5.162 0-9.368-4.216-9.368-9.379 0-5.146 4.206-9.362 9.368-9.362 5.17-0.01 9.37 4.21 9.37 9.36" fill="#BCBEC0"/>
			</g>
			<defs>
				<rect id="SVGID_13_" y="444.78" x="-249.5" height="111.45" width="500"/>
			</defs>
			<clipPath id="SVGID_14_">
				<use overflow="visible" xlink:href="#SVGID_13_"/>
			</clipPath>
			<g clip-path="url(#SVGID_14_)">
				<path d="m-196.26 546.84c0 5.163-4.202 9.381-9.373 9.381-5.162 0-9.368-4.218-9.368-9.381 0-5.146 4.206-9.357 9.368-9.357 5.17 0 9.37 4.22 9.37 9.36" fill="#F17192"/>
			</g>
			<defs>
				<rect id="SVGID_15_" y="444.78" x="-249.5" height="111.45" width="500"/>
			</defs>
			<clipPath id="SVGID_16_">
				<use overflow="visible" xlink:href="#SVGID_15_"/>
			</clipPath>
			<g clip-path="url(#SVGID_16_)">
				<path d="m-162.86 471.12c0 5.163-4.202 9.379-9.373 9.379s-9.368-4.216-9.368-9.379c0-5.144 4.197-9.359 9.368-9.359s9.37 4.22 9.37 9.36" fill="#63C3B2"/>
			</g>
			<defs>
				<rect id="SVGID_17_" y="444.78" x="-249.5" height="111.45" width="500"/>
			</defs>
			<clipPath id="SVGID_18_">
				<use overflow="visible" xlink:href="#SVGID_17_"/>
			</clipPath>
			<g clip-path="url(#SVGID_18_)">
				<path d="m-157.68 501.5c0 5.172-4.206 9.379-9.373 9.379-5.166 0-9.368-4.207-9.368-9.379 0-5.141 4.202-9.358 9.368-9.358 5.17 0 9.37 4.22 9.37 9.36" fill="#74C8BA"/>
			</g>
			<defs>
				<rect id="SVGID_19_" y="444.78" x="-249.5" height="111.45" width="500"/>
			</defs>
			<clipPath id="SVGID_20_">
				<use overflow="visible" xlink:href="#SVGID_19_"/>
			</clipPath>
			<g clip-path="url(#SVGID_20_)">
				<path d="m-162.86 531.75c0 5.163-4.202 9.387-9.369 9.387-5.166 0-9.368-4.224-9.368-9.387 0-5.144 4.202-9.354 9.368-9.354s9.37 4.2 9.37 9.35" fill="#81CDC4"/>
			</g>
			<defs>
				<rect id="SVGID_21_" y="444.78" x="-249.5" height="111.45" width="500"/>
			</defs>
			<clipPath id="SVGID_22_">
				<use overflow="visible" xlink:href="#SVGID_21_"/>
			</clipPath>
			<g clip-path="url(#SVGID_22_)">
				<path d="m-230.61 486.36c0 5.166-4.192 9.386-9.359 9.386s-9.373-4.221-9.373-9.386c0-5.146 4.206-9.354 9.373-9.354s9.36 4.21 9.36 9.35" fill="#BA1E5A"/>
			</g>
			<defs>
				<rect id="SVGID_23_" y="444.78" x="-249.5" height="111.45" width="500"/>
			</defs>
			<clipPath id="SVGID_24_">
				<use overflow="visible" xlink:href="#SVGID_23_"/>
			</clipPath>
			<g clip-path="url(#SVGID_24_)">
				<path d="m-230.77 516.62c0 5.166-4.202 9.384-9.369 9.384-5.162 0-9.363-4.218-9.363-9.384 0-5.143 4.201-9.357 9.363-9.357 5.17 0 9.37 4.22 9.37 9.36" fill="#E5305B"/>
			</g>
			<defs>
				<rect id="SVGID_25_" y="444.78" x="-249.5" height="111.45" width="500"/>
			</defs>
			<clipPath id="SVGID_26_">
				<use overflow="visible" xlink:href="#SVGID_25_"/>
			</clipPath>
			<g clip-path="url(#SVGID_26_)">
				<path d="m-230.77 546.84c0 5.167-4.202 9.39-9.369 9.39-5.162 0-9.363-4.223-9.363-9.39 0-5.144 4.201-9.351 9.363-9.351 5.17-0.01 9.37 4.2 9.37 9.35" fill="#EE3C58"/>
			</g>
</svg>
